<svg width="1440" height="382" viewBox="0 0 1440 382" fill="none" xmlns="http://www.w3.org/2000/svg">
<rect x="1325.33" y="222.361" width="111.276" height="111.276" fill="#132241"/>
<rect x="658.664" y="222.361" width="111.276" height="111.276" fill="#132241"/>
<rect x="769.06" y="332.757" width="111.276" height="111.276" fill="#132241"/>
<rect x="-8" y="333.829" width="111.276" height="111.276" fill="#132241"/>
<rect x="547.196" y="332.757" width="111.276" height="111.276" fill="#132241"/>
<rect x="324.716" y="111.276" width="111.276" height="111.276" fill="#132241"/>
<rect x="435.992" y="111.276" width="111.276" height="111.276" fill="#132241"/>
<rect x="547.268" y="111.276" width="111.276" height="111.276" fill="#0388C1"/>
<rect x="879.456" y="110.893" width="111.276" height="111.276" fill="#132241"/>
<rect x="658.664" y="0.496826" width="111.276" height="111.276" fill="#132241"/>
<rect x="213.44" width="111.276" height="111.276" fill="#0388C1"/>
<rect x="769.06" y="0.496826" width="111.276" height="111.276" fill="#132241"/>
<rect x="990.924" y="0.496826" width="111.276" height="111.276" fill="#0388C1"/>
<rect x="1214.93" y="110.893" width="111.276" height="111.276" fill="#132241"/>
<rect x="1325.33" y="0.496826" width="111.276" height="111.276" fill="#132241"/>
<rect x="1435.72" y="0.496826" width="111.276" height="111.276" fill="#0388C1"/>
<rect x="1435.72" y="222.361" width="111.276" height="111.276" fill="#132241"/>
<rect x="1102.39" y="221.864" width="111.276" height="111.276" fill="#0388C1"/>
<rect x="990.924" y="222.361" width="111.276" height="111.276" fill="#132241"/>
<rect x="1101.32" y="332.757" width="111.276" height="111.276" fill="#132241"/>
<rect x="-8" y="111.276" width="111.276" height="111.276" fill="#132241"/>
<rect x="103.276" y="222.552" width="111.276" height="111.276" fill="#132241"/>
<rect x="769.06" y="222.361" width="111.276" height="111.276" fill="#132241"/>
<rect x="214.553" y="222.552" width="111.276" height="111.276" fill="#132241"/>
<rect x="435.992" y="222.552" width="111.276" height="111.276" fill="#0388C1"/>
</svg>
